# xmcd
#
# Track frame offsets:
#	150
#	38596
#	67391
#	95276
#	129325
#	162330
#	179222
#	212209
#	242902
#	280430
#	300709
#	319901
#
# Disc length: 4698 seconds
#
# Revision: 2
# Processed by: cddbd v1.5.2PL0 Copyright (c) Steve Scherf et al.
# Submitted via: audiograbber 1.83.01
#
DISCID=b912580c
DTITLE=Stieg Larsson - Dietmar Bär - Verdammnis Teil 2 der Triologie CD 03
DYEAR=2009
DGENRE=Hörbuch
TTITLE0=024 Verdammnis
TTITLE1=025 Verdammnis
TTITLE2=026 Verdammnis
TTITLE3=027 Verdammnis
TTITLE4=028 Verdammnis
TTITLE5=029 Verdammnis
TTITLE6=030 Verdammnis
TTITLE7=031 Verdammnis
TTITLE8=032 Verdammnis
TTITLE9=033 Verdammnis
TTITLE10=034 Verdammnis
TTITLE11=035 Verdammnis
EXTD=gelesen von Dietmar Bär YEAR: 2009
EXTT0=
EXTT1=
EXTT2=
EXTT3=
EXTT4=
EXTT5=
EXTT6=
EXTT7=
EXTT8=
EXTT9=
EXTT10=
EXTT11=
PLAYORDER=
